<?xml version="1.0" encoding="iso-8859-1"?>
<!-- Generator: Adobe Illustrator 19.0.0, SVG Export Plug-In . SVG Version: 6.00 Build 0)  -->
<svg version="1.1" id="Layer_1" xmlns="http://www.w3.org/2000/svg" xmlns:xlink="http://www.w3.org/1999/xlink" x="0px" y="0px"
	 viewBox="0 0 512 512" style="enable-background:new 0 0 512 512;" xml:space="preserve">
<g>
	<g>
		<path d="M168.907,0v512h174.186V0H168.907z M327.258,496.165H184.742V374.763h142.516V496.165z M327.258,358.928H184.742V153.072
			h142.516V358.928z M327.258,137.237H184.742V15.835h142.516V137.237z"/>
	</g>
</g>
<g>
	<g>
		<path d="M256,29.152l-50.733,86.971h101.466L256,29.152z M256,60.58l23.164,39.709h-46.328L256,60.58z"/>
	</g>
</g>
<g>
	<g>
		<path d="M205.268,395.876L256,482.848l50.733-86.971H205.268z M232.836,411.711h46.328L256,451.42L232.836,411.711z"/>
	</g>
</g>
<g>
	<g>
		<path d="M200.577,179.464v89.732h110.845v-89.732H200.577z M295.588,253.361h-79.175v-58.062h79.175V253.361z"/>
	</g>
</g>
<g>
</g>
<g>
</g>
<g>
</g>
<g>
</g>
<g>
</g>
<g>
</g>
<g>
</g>
<g>
</g>
<g>
</g>
<g>
</g>
<g>
</g>
<g>
</g>
<g>
</g>
<g>
</g>
<g>
</g>
</svg>
